<svg xmlns="http://www.w3.org/2000/svg" viewBox="0 0 1366 768"><defs><style>.cls-1{fill:#f8f9fa;}.cls-2,.cls-7,.cls-8{fill:#c7ccde;}.cls-11,.cls-12,.cls-2,.cls-3,.cls-7,.cls-8,.cls-9{stroke:#a8adc4;}.cls-10,.cls-11,.cls-12,.cls-13,.cls-14,.cls-16,.cls-17,.cls-19,.cls-2,.cls-20,.cls-21,.cls-22,.cls-23,.cls-3,.cls-5,.cls-6,.cls-7,.cls-8,.cls-9{stroke-miterlimit:10;}.cls-2,.cls-21,.cls-3{stroke-width:3px;}.cls-3{fill:#b2b8ce;}.cls-4{fill:#a9aec6;}.cls-5{fill:#d2d6e5;}.cls-10,.cls-5{stroke:#adb2c9;}.cls-6{fill:#e1e4ee;stroke:#c7ccde;}.cls-20,.cls-22,.cls-8{stroke-width:2px;}.cls-9{fill:#a8adc4;}.cls-10{fill:#bec3d8;}.cls-11{fill:#d8dce9;}.cls-12{fill:#ccd1e1;}.cls-13{fill:#f9d8da;}.cls-13,.cls-14,.cls-19,.cls-20{stroke:#f3bebe;}.cls-14{fill:#f7c7c7;}.cls-15{fill:#f3bebe;}.cls-16,.cls-21{fill:#dbf6f8;}.cls-16,.cls-17,.cls-21,.cls-22,.cls-23{stroke:#9de0e0;}.cls-16{stroke-width:0.5px;}.cls-17{fill:#caf1f3;stroke-width:0.25px;}.cls-18{fill:#9de0e0;}.cls-19,.cls-20{fill:#f4dfe1;}.cls-22,.cls-23{fill:#cdf1f3;}.cls-23{stroke-linecap:round;}</style></defs><g id="Layer_3" data-name="Layer 3"><rect class="cls-1" width="1366" height="768"/></g><g id="Layer_2" data-name="Layer 2"><path class="cls-2" d="M283.5,201.5a129.27,129.27,0,0,0-16,57c-.26,6.12-1.86,66.59,46,107,9.08,7.67,32.51,26.9,67,29,47.21,2.87,92.44-27.74,113-70,31.53-64.82-10-126.15-12-129-.87-1.24-2.13-3-3.77-5.13-5.65-7.33-30.32-37.25-73.23-45.87-9.5-1.91-34-6.49-62,4C306.27,162.05,289.2,191.36,283.5,201.5Z"/><path class="cls-3" d="M347,174c1.57-.3,13.05-2.29,23,5,8.49,6.23,15.41,18.88,11,31-3.1,8.54-11.14,14.92-19,16-5.76.79-14.87-.78-22-5-1.51-.89-2.86-1.86-5-2-5.47-.36-10.72,5-13,10-.42.91-3.65,8.26,0,15,.65,1.19,2.05,3.38,6,6,7.22,4.8,14.17,5.26,18,6s17.71,6,24,18a32.16,32.16,0,0,1,3,9,39.56,39.56,0,0,1-1,19c-1,3.44-2.91,9-6,12a7.63,7.63,0,0,0-2,3,8.36,8.36,0,0,0,0,5c1.22,4.43,5.21,6.89,7,8a20.5,20.5,0,0,0,11,3c2.44,0,6.83-.12,10-3,2.7-2.45,2.36-5,4-10,.54-1.66,3.42-10.09,10-16a27.14,27.14,0,0,1,15-7c.9-.1,13.06-1.3,21,7,8.83,9.24,7.4,24.64,1,34-8,11.63-22.71,12.64-28,13-12.3.84-23.11-3.65-36-9-8.81-3.66-10.05-5.23-17-7-11.08-2.82-14.73-.55-24-3a45.83,45.83,0,0,1-21-12c-8.34-8.53-13.43-21.27-12-33a67.07,67.07,0,0,1,3-12c2.88-8.94,5.28-11.66,6-18,.6-5.28-.45-9-1-12-3.24-17.34,2.47-35.37,3-37C317.09,204.66,325.79,178,347,174Z"/><circle class="cls-4" cx="426.5" cy="206.5" r="2.5"/><circle class="cls-4" cx="461.5" cy="231.5" r="2.5"/><circle class="cls-4" cx="448.5" cy="262.5" r="3.5"/><circle class="cls-4" cx="470.5" cy="280.5" r="2.5"/><circle class="cls-4" cx="386.5" cy="308.5" r="2.5"/><circle class="cls-4" cx="385.5" cy="228.5" r="2.5"/><circle class="cls-4" cx="367.5" cy="255.5" r="3.5"/><circle class="cls-4" cx="411.5" cy="228.5" r="3.5"/><circle class="cls-4" cx="386.5" cy="245.5" r="3.5"/><circle class="cls-4" cx="436.5" cy="234.5" r="4.5"/><circle class="cls-4" cx="418" cy="285" r="4"/><circle class="cls-4" cx="454.5" cy="304.5" r="2.5"/><circle class="cls-4" cx="475.5" cy="322.5" r="2.5"/><circle class="cls-4" cx="423.5" cy="367.5" r="2.5"/><circle class="cls-4" cx="300.5" cy="261.5" r="2.5"/><circle class="cls-4" cx="345.5" cy="346.5" r="2.5"/><circle class="cls-4" cx="378.5" cy="372.5" r="2.5"/><circle class="cls-4" cx="399.5" cy="183.5" r="2.5"/><circle class="cls-4" cx="356.5" cy="163.5" r="3.5"/><circle class="cls-4" cx="297.5" cy="218.5" r="3.5"/><circle class="cls-4" cx="294.5" cy="298.5" r="3.5"/><path class="cls-5" d="M394.5,512.5a20.73,20.73,0,0,0-2,2,17.37,17.37,0,0,1-6,4c-2.95,1.15-3.17,0-5,1a11.25,11.25,0,0,0-5,8,7.62,7.62,0,0,1-1,4,12.31,12.31,0,0,1-2,2c-2.24,2-2.81,2.19-3,3-.1.4-.05.74,1,3,1.49,3.22,2,3.82,2,5a6.76,6.76,0,0,1-1,3c-3.17,6.55-3.65,7.32-4,9a9.09,9.09,0,0,0,0,5,9.42,9.42,0,0,0,4,5c1.07.62,2.06.84,3,2a4.61,4.61,0,0,1,1,4,10.79,10.79,0,0,0,0,5,5.54,5.54,0,0,0,2,3,6,6,0,0,0,3,1,9.54,9.54,0,0,1,2,0,5.23,5.23,0,0,1,2,1c1.09.77,1.71,1.21,2,2,.39,1.09-.32,1.53,0,3a4.91,4.91,0,0,0,1,2c.4.53,1.63,2.15,3,2,.8-.09.9-.7,2-1a4,4,0,0,1,2,0,5.19,5.19,0,0,1,2,1c1.54,1.12,1.84,1.91,3,3a8.5,8.5,0,0,0,3,2c2.86,1,5.78-.41,7-1a8.63,8.63,0,0,0,3-2c.81-.9,1-1.66,2-2a3.42,3.42,0,0,1,2,0,6.7,6.7,0,0,1,2,1,6.78,6.78,0,0,0,4,1,5.13,5.13,0,0,0,3-2c1.25-1.48.95-2.44,2-3,.73-.39,1.28-.15,3,0a13,13,0,0,0,4,0,6.46,6.46,0,0,0,4-3c.78-1.6,0-2.35,1-4a7.14,7.14,0,0,1,2-2,9.84,9.84,0,0,1,2-1,21.91,21.91,0,0,0,4-2,8.9,8.9,0,0,0,3-4,12,12,0,0,0,0-8c-.53-1.85-.91-1.77-1-3-.18-2.42,1.13-4.57,2-6a31.85,31.85,0,0,0,2-3c.66-1.34,1.29-2.6,1-4-.2-1-.65-1-2-3s-1.89-2.8-2-4c-.07-.75.29-1.83,1-4a30.23,30.23,0,0,0,1-3c.32-1.44.62-2.83,0-4-.12-.23-.54-1-3-2-3.17-1.35-4.11-.86-6-2a16,16,0,0,1-3-3c-1.62-1.84-1.89-2.47-4-5-1.95-2.34-2.49-2.72-3-3a12.92,12.92,0,0,0-4-1c-3.7-.61-4.18-.32-5-1-1.12-.92-.56-1.73-2-4a6.65,6.65,0,0,0-3-3,5.81,5.81,0,0,0-4,0,17.23,17.23,0,0,0-3,2,18.6,18.6,0,0,1-3,2c-1.24.4-2.12.24-4,0-4.67-.61-7-.91-9,0A14.86,14.86,0,0,0,394.5,512.5Z"/><circle class="cls-6" cx="385" cy="530" r="2.5"/><circle class="cls-6" cx="419.5" cy="518.5" r="3"/><ellipse class="cls-6" cx="435" cy="533.5" rx="3" ry="3.5" transform="translate(-220.61 743.31) rotate(-68.55)"/><circle class="cls-6" cx="442" cy="555" r="2.5"/><circle class="cls-6" cx="423" cy="581" r="2.5"/><circle class="cls-6" cx="394.11" cy="548.77" r="1.27"/><circle class="cls-6" cx="424" cy="534" r="1.5"/><circle class="cls-6" cx="381" cy="559" r="3.5"/><circle class="cls-7" cx="408" cy="535" r="0.5"/><circle class="cls-8" cx="440" cy="542" r="0.5"/><circle class="cls-7" cx="405" cy="516" r="0.5"/><circle class="cls-7" cx="440" cy="527" r="0.5"/><circle class="cls-7" cx="426" cy="519" r="0.5"/><circle class="cls-9" cx="413.5" cy="524.5" r="1"/><circle class="cls-7" cx="390" cy="523" r="0.5"/><circle class="cls-7" cx="377" cy="537" r="0.5"/><circle class="cls-7" cx="448" cy="550" r="0.5"/><circle class="cls-7" cx="424" cy="528" r="0.5"/><circle class="cls-7" cx="377" cy="551" r="0.5"/><circle class="cls-7" cx="390" cy="540" r="0.5"/><circle class="cls-8" cx="441" cy="566" r="0.5"/><circle class="cls-7" cx="430" cy="581" r="0.5"/><circle class="cls-7" cx="408" cy="577" r="0.5"/><circle class="cls-8" cx="395" cy="563" r="0.5"/><circle class="cls-9" cx="399.5" cy="528.5" r="1"/><circle class="cls-7" cx="397" cy="579" r="0.5"/><circle class="cls-9" cx="417.5" cy="587.5" r="1"/><path class="cls-10" d="M400.5,548.5c-3.94,8.68,1.43,17.14,2,18,3.44,5.18,10.15,9.84,18,9,9.14-1,17.17-9.12,17-19-.15-9-7.06-16.09-15-18C413.92,536.44,404.16,540.44,400.5,548.5Z"/><path class="cls-11" d="M778.5,278.5a43,43,0,0,0-7,24c.2,16.34,10,35.22,29,42a43.43,43.43,0,0,0,44-9c17.7-16.57,12.59-40.44,12-43-.49-2.12-6.49-26.1-29-33C807.9,253.49,788,264.16,778.5,278.5Z"/><path class="cls-12" d="M793.5,278.5a26,26,0,0,0-7,17c-.24,10.95,6.77,22.48,18,26,14.54,4.56,31.57-5.73,34-21,1.82-11.41-4.87-23.37-16-28A26.57,26.57,0,0,0,793.5,278.5Z"/><path class="cls-13" d="M1060.62,279.48a44.56,44.56,0,0,0-5.52,19.63c-.09,2.11-.64,22.94,15.85,36.86,3.13,2.64,11.19,9.26,23.07,10,16.27,1,31.84-9.55,38.92-24.1,10.86-22.33-3.44-43.45-4.13-44.43-.3-.43-.73-1-1.3-1.77a43.63,43.63,0,0,0-25.22-15.8,38.19,38.19,0,0,0-21.35,1.38C1068.46,265.9,1062.58,276,1060.62,279.48Z"/><path class="cls-14" d="M1082.49,270a10.64,10.64,0,0,1,7.92,1.72c2.92,2.15,5.3,6.5,3.79,10.68a8.64,8.64,0,0,1-6.55,5.51,13,13,0,0,1-7.58-1.72,3.56,3.56,0,0,0-1.72-.69c-1.88-.12-3.69,1.73-4.47,3.44a6.1,6.1,0,0,0,0,5.17,5.79,5.79,0,0,0,2.06,2.07,14.55,14.55,0,0,0,6.2,2.06c1.34.26,6.1,2.06,8.27,6.2a11.45,11.45,0,0,1,1,3.1,13.66,13.66,0,0,1-.34,6.55,10.45,10.45,0,0,1-2.07,4.13,2.56,2.56,0,0,0-.69,1,2.85,2.85,0,0,0,0,1.72,5,5,0,0,0,2.41,2.76,7,7,0,0,0,3.79,1,5.06,5.06,0,0,0,3.44-1c.93-.85.82-1.71,1.38-3.44a13.44,13.44,0,0,1,3.45-5.52,9.33,9.33,0,0,1,5.16-2.41c.31,0,4.5-.45,7.24,2.41,3,3.19,2.54,8.49.34,11.71-2.74,4-7.82,4.36-9.64,4.48-4.24.29-8-1.25-12.4-3.1-3-1.26-3.47-1.8-5.86-2.41-3.81-1-5.07-.19-8.26-1a15.9,15.9,0,0,1-7.24-4.13,14.47,14.47,0,0,1-4.13-11.37,22.82,22.82,0,0,1,1-4.13c1-3.08,1.82-4,2.07-6.2a12.27,12.27,0,0,0-.34-4.14c-1.12-6,.85-12.18,1-12.74C1072.18,280.57,1075.18,271.4,1082.49,270Z"/><circle class="cls-15" cx="1109.87" cy="281.2" r="0.86"/><circle class="cls-15" cx="1121.92" cy="289.81" r="0.86"/><circle class="cls-15" cx="1117.44" cy="300.49" r="1.21"/><circle class="cls-15" cx="1125.02" cy="306.69" r="0.86"/><circle class="cls-15" cx="1096.09" cy="316.33" r="0.86"/><circle class="cls-15" cx="1095.75" cy="288.78" r="0.86"/><circle class="cls-15" cx="1089.55" cy="298.08" r="1.21"/><circle class="cls-15" cx="1104.7" cy="288.78" r="1.21"/><circle class="cls-15" cx="1096.09" cy="294.64" r="1.21"/><circle class="cls-15" cx="1113.31" cy="290.85" r="1.55"/><circle class="cls-15" cx="1106.94" cy="308.24" r="1.38"/><circle class="cls-15" cx="1119.51" cy="314.96" r="0.86"/><circle class="cls-15" cx="1126.74" cy="321.16" r="0.86"/><circle class="cls-15" cx="1108.83" cy="336.65" r="0.86"/><circle class="cls-15" cx="1066.47" cy="300.15" r="0.86"/><circle class="cls-15" cx="1081.97" cy="329.42" r="0.86"/><circle class="cls-15" cx="1093.33" cy="338.38" r="0.86"/><circle class="cls-15" cx="1100.57" cy="273.28" r="0.86"/><circle class="cls-15" cx="1085.76" cy="266.39" r="1.21"/><circle class="cls-15" cx="1065.44" cy="285.34" r="1.21"/><circle class="cls-15" cx="1064.4" cy="312.89" r="1.21"/><path class="cls-16" d="M614.89,215.6a9.92,9.92,0,0,0-1.23,4.4,10.67,10.67,0,0,0,3.55,8.25,8.73,8.73,0,0,0,5.16,2.24,9.42,9.42,0,0,0,8.72-5.4c2.43-5-.77-9.73-.92-10l-.3-.4a9.78,9.78,0,0,0-5.64-3.54,8.67,8.67,0,0,0-4.79.31A8.88,8.88,0,0,0,614.89,215.6Z"/><path class="cls-17" d="M619.79,213.48a2.35,2.35,0,0,1,1.77.39,2.16,2.16,0,0,1,.85,2.39,1.92,1.92,0,0,1-1.46,1.23,3,3,0,0,1-1.7-.38.81.81,0,0,0-.39-.16c-.42,0-.82.39-1,.77a1.39,1.39,0,0,0,0,1.16,1.32,1.32,0,0,0,.46.46,3.39,3.39,0,0,0,1.39.47,3,3,0,0,1,1.85,1.38,2.89,2.89,0,0,1,.24.7,3.17,3.17,0,0,1-.08,1.46,2.39,2.39,0,0,1-.46.93.61.61,0,0,0-.16.23.63.63,0,0,0,0,.39,1.07,1.07,0,0,0,.54.61,1.58,1.58,0,0,0,.85.24,1.14,1.14,0,0,0,.77-.24c.21-.18.18-.38.31-.77a3,3,0,0,1,.77-1.23,2.12,2.12,0,0,1,1.16-.54,2.06,2.06,0,0,1,1.62.54,2.18,2.18,0,0,1,.08,2.62,2.73,2.73,0,0,1-2.16,1,6.07,6.07,0,0,1-2.78-.69,9.18,9.18,0,0,0-1.31-.54c-.86-.22-1.14,0-1.85-.23a3.54,3.54,0,0,1-1.62-.93,3.2,3.2,0,0,1-.93-2.54,5.05,5.05,0,0,1,.23-.93,7.16,7.16,0,0,0,.46-1.39,2.74,2.74,0,0,0-.07-.92,6.52,6.52,0,0,1,.23-2.86C617.48,215.85,618.15,213.79,619.79,213.48Z"/><circle class="cls-18" cx="625.92" cy="215.99" r="0.19"/><circle class="cls-18" cx="628.62" cy="217.92" r="0.19"/><circle class="cls-18" cx="627.62" cy="220.31" r="0.27"/><circle class="cls-18" cx="629.32" cy="221.7" r="0.19"/><circle class="cls-18" cx="622.84" cy="223.86" r="0.19"/><circle class="cls-18" cx="622.76" cy="217.68" r="0.19"/><circle class="cls-18" cx="621.37" cy="219.77" r="0.27"/><circle class="cls-18" cx="624.77" cy="217.68" r="0.27"/><circle class="cls-18" cx="622.84" cy="219" r="0.27"/><circle class="cls-18" cx="626.69" cy="218.15" r="0.35"/><circle class="cls-18" cx="625.27" cy="222.04" r="0.31"/><circle class="cls-18" cx="628.08" cy="223.55" r="0.19"/><circle class="cls-18" cx="629.7" cy="224.94" r="0.19"/><circle class="cls-18" cx="625.69" cy="228.41" r="0.19"/><circle class="cls-18" cx="616.2" cy="220.23" r="0.19"/><circle class="cls-18" cx="619.67" cy="226.79" r="0.19"/><circle class="cls-18" cx="622.22" cy="228.79" r="0.19"/><circle class="cls-18" cx="623.84" cy="214.21" r="0.19"/><circle class="cls-18" cx="620.52" cy="212.67" r="0.27"/><circle class="cls-18" cx="615.97" cy="216.91" r="0.27"/><circle class="cls-18" cx="615.74" cy="223.08" r="0.27"/><path class="cls-13" d="M667.88,381.3a15.39,15.39,0,0,0-1.28,1.27,10.83,10.83,0,0,1-3.82,2.51c-1.89.74-2,0-3.22.67a7.14,7.14,0,0,0-3.21,5.09,4.75,4.75,0,0,1-.64,2.54,7.77,7.77,0,0,1-1.28,1.27c-1.43,1.28-1.79,1.4-1.92,1.91-.06.25,0,.47.64,1.91,1,2,1.27,2.42,1.28,3.18a4.2,4.2,0,0,1-.64,1.9c-2,4.17-2.34,4.65-2.56,5.72a5.7,5.7,0,0,0,0,3.18,6,6,0,0,0,2.56,3.18,5.36,5.36,0,0,1,1.92,1.27,2.92,2.92,0,0,1,.64,2.55,6.77,6.77,0,0,0,0,3.17,3.53,3.53,0,0,0,1.29,1.91,3.82,3.82,0,0,0,1.92.64,5.48,5.48,0,0,1,1.28,0,3.34,3.34,0,0,1,1.28.63c.7.49,1.1.77,1.28,1.27.25.7-.21,1,0,1.91a3.09,3.09,0,0,0,.64,1.27c.26.34,1.05,1.37,1.92,1.27.51,0,.58-.44,1.28-.63a2.62,2.62,0,0,1,1.28,0,3.24,3.24,0,0,1,1.28.63,16.64,16.64,0,0,1,1.93,1.91,5.4,5.4,0,0,0,1.92,1.27,6,6,0,0,0,4.48-.63,5.55,5.55,0,0,0,1.92-1.27c.52-.58.67-1.06,1.28-1.28a2.27,2.27,0,0,1,1.28,0,4.45,4.45,0,0,1,1.29.64,4.34,4.34,0,0,0,2.56.64,3.32,3.32,0,0,0,1.92-1.28c.8-.94.6-1.55,1.28-1.9.47-.25.82-.1,1.92,0a8.66,8.66,0,0,0,2.56,0,4.18,4.18,0,0,0,2.57-1.91c.5-1,0-1.5.64-2.54a4.44,4.44,0,0,1,1.28-1.27,6.13,6.13,0,0,1,1.28-.64,13.87,13.87,0,0,0,2.56-1.27,5.73,5.73,0,0,0,1.92-2.54,7.56,7.56,0,0,0,0-5.09c-.34-1.17-.58-1.13-.64-1.91a6.5,6.5,0,0,1,1.28-3.81,21.24,21.24,0,0,0,1.28-1.91,3.85,3.85,0,0,0,.64-2.54c-.13-.63-.41-.64-1.28-1.91a5.61,5.61,0,0,1-1.28-2.54,8.23,8.23,0,0,1,.64-2.54c.4-1.23.5-1.26.64-1.91a3.72,3.72,0,0,0,0-2.55c-.08-.14-.34-.6-1.92-1.27-2-.85-2.63-.54-3.84-1.27a9.53,9.53,0,0,1-1.92-1.91c-1-1.16-1.22-1.57-2.57-3.17s-1.59-1.73-1.92-1.91a8.37,8.37,0,0,0-2.56-.64c-2.37-.39-2.68-.2-3.2-.63-.72-.59-.36-1.1-1.28-2.55a4.3,4.3,0,0,0-1.92-1.9,3.72,3.72,0,0,0-2.57,0,11.5,11.5,0,0,0-1.92,1.27,11.84,11.84,0,0,1-1.92,1.27,5.33,5.33,0,0,1-2.56,0c-3-.39-4.49-.58-5.77,0A9.93,9.93,0,0,0,667.88,381.3Z"/><ellipse class="cls-19" cx="661.8" cy="392.43" rx="1.6" ry="1.59"/><ellipse class="cls-19" cx="683.9" cy="385.12" rx="1.92" ry="1.91"/><ellipse class="cls-19" cx="693.82" cy="394.65" rx="1.91" ry="2.24" transform="translate(80.92 906.02) rotate(-69.47)"/><ellipse class="cls-19" cx="698.31" cy="408.32" rx="1.6" ry="1.59"/><ellipse class="cls-19" cx="686.14" cy="424.85" rx="1.6" ry="1.59"/><ellipse class="cls-19" cx="667.63" cy="404.36" rx="0.82" ry="0.81"/><ellipse class="cls-19" cx="686.78" cy="394.97" rx="0.96" ry="0.95"/><ellipse class="cls-19" cx="659.24" cy="410.86" rx="2.24" ry="2.23"/><circle class="cls-19" cx="676.53" cy="395.61" r="0.32"/><circle class="cls-20" cx="697.03" cy="400.06" r="0.32"/><circle class="cls-19" cx="674.61" cy="383.53" r="0.32"/><circle class="cls-19" cx="697.03" cy="390.52" r="0.32"/><circle class="cls-19" cx="688.06" cy="385.43" r="0.32"/><ellipse class="cls-19" cx="680.05" cy="388.93" rx="0.64" ry="0.64"/><circle class="cls-19" cx="665" cy="387.98" r="0.32"/><circle class="cls-19" cx="656.67" cy="396.88" r="0.32"/><circle class="cls-19" cx="702.15" cy="405.14" r="0.32"/><circle class="cls-19" cx="686.78" cy="391.16" r="0.32"/><circle class="cls-19" cx="656.67" cy="405.78" r="0.32"/><circle class="cls-19" cx="665" cy="398.78" r="0.32"/><circle class="cls-20" cx="697.67" cy="415.31" r="0.32"/><circle class="cls-19" cx="690.62" cy="424.85" r="0.32"/><circle class="cls-19" cx="676.53" cy="422.31" r="0.32"/><circle class="cls-20" cx="668.2" cy="413.41" r="0.32"/><ellipse class="cls-19" cx="671.09" cy="391.47" rx="0.64" ry="0.64"/><circle class="cls-19" cx="669.48" cy="423.58" r="0.32"/><ellipse class="cls-19" cx="682.61" cy="428.98" rx="0.64" ry="0.64"/><path class="cls-14" d="M671.73,404.19c-2.53,5.52.91,10.89,1.28,11.44a12.61,12.61,0,0,0,11.53,5.72,12.26,12.26,0,0,0,10.88-12.08c-.09-5.71-4.52-10.23-9.6-11.44C680.32,396.52,674.07,399.07,671.73,404.19Z"/><path class="cls-21" d="M874.07,422.61A98.84,98.84,0,0,0,858,477.75c.46,37.54,22.87,80.93,66.63,96.52,33.66,12,73.44,5.21,101.11-20.68,40.68-38.08,28.94-92.94,27.57-98.81-1.13-4.88-14.92-60-66.63-75.83C941.63,365.13,895.86,389.65,874.07,422.61Z"/><path class="cls-22" d="M908.54,422.61c-15.18,15.8-16,35.19-16.09,39.06-.55,25.16,15.56,51.65,41.37,59.74,33.4,10.49,72.54-13.16,78.12-48.25,4.18-26.21-11.18-53.71-36.76-64.34A61,61,0,0,0,908.54,422.61Z"/><path class="cls-23" d="M1063,415l17.29-9.61a2.63,2.63,0,0,0,1.08-1.11l10.24-19.82a2.69,2.69,0,0,1,.63-.8l.76-.66.34,1,.05.16a2.68,2.68,0,0,0,2.55,1.84H1097l-.67,1.34-10,20a2.61,2.61,0,0,1-.43.63,2.75,2.75,0,0,1-.6.48l-27.76,16.47a2.69,2.69,0,0,1-4.06-2.31v-.46a2.68,2.68,0,0,1,1.33-2.31Z"/><path class="cls-23" d="M1070.66,428l17.06-10a2.67,2.67,0,0,1,1.51-.36l22.27,1.26a2.68,2.68,0,0,0,1-.13l1-.32-.69-.81-.11-.12a2.68,2.68,0,0,1-.29-3.13l0-.05.51-.86-1.5-.11-22.25-1.55a2.4,2.4,0,0,0-.77.05,2.89,2.89,0,0,0-.71.27l-28.3,15.53a2.68,2.68,0,0,0-.08,4.67l.4.23a2.68,2.68,0,0,0,2.67,0Z"/><path class="cls-23" d="M1085.5,380.5l-9.83,18.76a2.54,2.54,0,0,0,1.07,3.42l.71.37a2.29,2.29,0,0,0,3.1-1l10-19.57h-3Z"/><path class="cls-23" d="M1112.38,426.86l-21.15-1.17a2.53,2.53,0,0,1-2.39-2.66l0-.8a2.3,2.3,0,0,1,2.43-2.16l21.91,1.47-1.54,2.58Z"/><line class="cls-23" x1="1035.15" y1="433.95" x2="1053.5" y2="423.89"/><line class="cls-23" x1="1039.5" y1="441.5" x2="1057.5" y2="431.5"/></g></svg>